<svg width="250" height="250" viewBox="0 0 250 250"  xmlns="http://www.w3.org/2000/svg">
	<defs>
		<filter id="shadow_f" x="-50%" y="-50%" width="200%" height="200%">
			<feGaussianBlur stdDeviation="8.0"/>
		</filter>
		<linearGradient x1="0.25" y1="1" x2="0.75" y2="0" id="bg_g">
			<stop offset="0" stop-color="#008B8B"/>
			<stop offset="1" stop-color="#0f9a9a"/>
		</linearGradient>
	</defs>
	<g>
		<circle id="shadow" fill="black" r="100" cy="135" cx="125" opacity="0.15" filter="url(#shadow_f)"/>
		<circle id="bg" fill="url(#bg_g)" r="100" cy="125" cx="125"/>
		<mask id="bgmask">
			<circle id="mask" fill="white" r="100" cy="125" cx="125"/>
		</mask>
		<g mask="url(#bgmask)">		
			<g transform="translate(65,50), scale(1.35)" fill= "white">
				<path d="M48.84,0A20.81,20.81,0,0,1,69.65,20.81c-1.1,27.6-40.52,27.59-41.61,0A20.81,20.81,0,0,1,48.84,0Z" transform="translate(-11.52)"/>
				<path d="M97.78,11c-3.44-3.44-11.63-2.33-13.93,3,0,0-17.06,29.91-18.6,32.34s-1,2.88-3.87,1.73c-2.19-.89-21.82-7.73-35.23,3.91S10.24,84,12,101.14c1,9.19,15.46,9.29,14.49,0-.66-6.4-.51-18.41,1.87-26.74.32-1.11,1.07-1.3,1.07.13V192.18A7.57,7.57,0,0,0,37,199.74h2.32a7.56,7.56,0,0,0,7.56-7.52l.32-53.65a2.55,2.55,0,0,1,5.09,0l.32,53.65a7.56,7.56,0,0,0,7.56,7.52H62.5a7.56,7.56,0,0,0,7.55-7.56c0-27.9,0-114.91,0-118.47,0-4.25.63-4.16,1.69-6,5.65-9.67,23.63-40.42,25.73-43.5C100,20.57,101.22,14.4,97.78,11Z" transform="translate(-11.52)"/>
			</g>
		</g>
	</g>
</svg>